<svg width="193" height="193" viewBox="0 0 193 193" fill="none" xmlns="http://www.w3.org/2000/svg">
<rect width="193" height="193" fill="white"/>
<path d="M56.0164 166.08C40.7359 157.189 28.8071 143.515 22.0716 127.17C15.3361 110.825 14.1685 92.7169 18.7492 75.642C23.3298 58.5671 33.4039 43.4748 47.4161 32.6955C61.4282 21.9161 78.5992 16.0491 96.2778 16.0003C113.956 15.9515 131.159 21.7236 145.231 32.4254C159.302 43.1273 169.46 58.1637 174.134 75.213C178.809 92.2624 177.742 110.377 171.097 126.759C164.451 143.141 152.598 156.88 137.367 165.855" stroke="#393939" stroke-width="4"/>
<path d="M99.8125 129.812H95.0625V114.375H99.8125V129.812ZM96.25 128.625H98.625V115.562H96.25V128.625Z" fill="#393939"/>
<path d="M93.875 129.812H89.125V119.125H93.875V129.812ZM90.3125 128.625H92.6875V120.312H90.3125V128.625Z" fill="#393939"/>
<path d="M87.9375 129.812H83.1875V122.688H87.9375V129.812ZM84.375 128.625H86.75V123.875H84.375V128.625Z" fill="#393939"/>
<path d="M98.5 69.1875C98.5 67.1509 96.8491 65.5 94.8125 65.5C92.7759 65.5 91.125 67.1509 91.125 69.1875C91.125 71.2241 92.7759 72.875 94.8125 72.875C96.8491 72.875 98.5 71.2241 98.5 69.1875Z" fill="#393939"/>
<path d="M72.6875 69.1875C72.6875 75.0554 75.0185 80.683 79.1678 84.8322C83.317 88.9815 88.9446 91.3125 94.8125 91.3125C100.68 91.3125 106.308 88.9815 110.457 84.8322C114.606 80.683 116.938 75.0554 116.938 69.1875H113.25C113.25 72.8341 112.169 76.3988 110.143 79.4308C108.117 82.4629 105.237 84.826 101.868 86.2215C98.4992 87.617 94.792 87.9821 91.2155 87.2707C87.639 86.5593 84.3538 84.8033 81.7752 82.2248C79.1967 79.6463 77.4407 76.361 76.7293 72.7845C76.0179 69.208 76.383 65.5008 77.7785 62.1318C79.174 58.7628 81.5371 55.8832 84.5692 53.8573C87.6012 51.8313 91.1659 50.75 94.8125 50.75C95.4265 50.7128 96.0422 50.7128 96.6563 50.75V47.0625C96.0478 47.0625 95.4394 46.9703 94.8125 46.9703C91.8992 46.9703 89.0146 47.5456 86.3243 48.6633C83.6339 49.7809 81.1908 51.4189 79.1351 53.4831C77.0794 55.5474 75.4516 57.9973 74.3451 60.6923C73.2387 63.3873 72.6754 66.2743 72.6875 69.1875V69.1875Z" fill="#393939"/>
<path d="M113.25 63.6562V46.7491L118.025 51.5244L120.625 48.9062L111.406 39.6875L102.188 48.9062L104.806 51.5244L109.562 46.7491V63.6562H113.25Z" fill="#393939"/>
<path d="M105.875 69.1875C105.875 71.3755 105.226 73.5143 104.011 75.3335C102.795 77.1527 101.067 78.5706 99.0459 79.4079C97.0245 80.2452 94.8002 80.4643 92.6543 80.0374C90.5084 79.6106 88.5373 78.557 86.9901 77.0099C85.443 75.4627 84.3894 73.4916 83.9626 71.3457C83.5357 69.1998 83.7548 66.9755 84.5921 64.9541C85.4294 62.9327 86.8473 61.2049 88.6665 59.9894C90.4857 58.7738 92.6245 58.125 94.8125 58.125C97.7465 58.125 100.56 59.2905 102.635 61.3651C104.709 63.4397 105.875 66.2535 105.875 69.1875V69.1875ZM87.4375 69.1875C87.4375 70.6461 87.87 72.072 88.6804 73.2848C89.4908 74.4976 90.6426 75.4429 91.9902 76.0011C93.3378 76.5593 94.8207 76.7054 96.2513 76.4208C97.6819 76.1362 98.996 75.4338 100.027 74.4024C101.059 73.371 101.761 72.0569 102.046 70.6263C102.33 69.1957 102.184 67.7128 101.626 66.3652C101.068 65.0176 100.123 63.8658 98.9098 63.0554C97.697 62.245 96.2711 61.8125 94.8125 61.8125C92.8565 61.8125 90.9807 62.5895 89.5976 63.9726C88.2145 65.3557 87.4375 67.2315 87.4375 69.1875V69.1875Z" fill="#393939"/>
<path d="M89.1958 95.5308C90.0259 95.5308 90.6118 95.7261 90.9536 96.1167C91.3198 96.4829 91.5029 97.1177 91.5029 98.021V111.827C91.5029 112.682 91.2954 113.292 90.8804 113.658C90.4653 114.024 89.7573 114.208 88.7563 114.208C87.7554 114.208 87.0474 114.024 86.6323 113.658C86.2173 113.292 86.0098 112.682 86.0098 111.827V100.511H76.2319V134.02H84.8745C85.7046 134.02 86.2905 134.215 86.6323 134.605C86.9985 134.972 87.1816 135.606 87.1816 136.51C87.1816 137.413 86.9985 138.06 86.6323 138.451C86.2905 138.817 85.7046 139 84.8745 139H62.0962C61.2661 139 60.668 138.817 60.3018 138.451C59.96 138.06 59.7891 137.413 59.7891 136.51C59.7891 135.606 59.96 134.972 60.3018 134.605C60.668 134.215 61.2661 134.02 62.0962 134.02H70.7388V100.511H60.9609V111.827C60.9609 112.682 60.7534 113.292 60.3384 113.658C59.9233 114.024 59.2153 114.208 58.2144 114.208C57.2134 114.208 56.5054 114.024 56.0903 113.658C55.6753 113.292 55.4678 112.682 55.4678 111.827V98.021C55.4678 97.1177 55.6387 96.4829 55.9805 96.1167C56.3467 95.7261 56.9448 95.5308 57.7749 95.5308H89.1958ZM119.738 95.5308C122.79 95.5308 125.402 96.0435 127.575 97.0688C129.772 98.0942 131.432 99.5347 132.555 101.39C133.703 103.246 134.276 105.406 134.276 107.872C134.276 110.655 133.373 113.011 131.566 114.94C129.76 116.869 127.282 118.187 124.132 118.895C125.5 119.432 126.635 120.299 127.538 121.495C128.295 122.496 128.942 123.497 129.479 124.498C130.016 125.475 130.614 126.683 131.273 128.124C131.957 129.613 132.482 130.699 132.848 131.383C133.8 133.141 134.899 134.02 136.144 134.02H137.169C138 134.02 138.585 134.215 138.927 134.605C139.293 134.972 139.477 135.606 139.477 136.51C139.477 137.413 139.293 138.06 138.927 138.451C138.585 138.817 138 139 137.169 139H134.533C133.068 139 131.823 138.622 130.797 137.865C129.796 137.083 128.82 135.765 127.868 133.91C127.331 132.835 126.671 131.419 125.89 129.662C125.158 128.05 124.56 126.805 124.096 125.926C123.656 125.023 123.119 124.132 122.484 123.253C121.752 122.228 120.873 121.458 119.848 120.946C118.822 120.409 117.589 120.14 116.149 120.14H111.168V134.02H115.929C116.759 134.02 117.345 134.215 117.687 134.605C118.053 134.972 118.236 135.606 118.236 136.51C118.236 137.413 118.053 138.06 117.687 138.451C117.345 138.817 116.759 139 115.929 139H101.208C100.377 139 99.7793 138.817 99.4131 138.451C99.0713 138.06 98.9004 137.413 98.9004 136.51C98.9004 135.606 99.0713 134.972 99.4131 134.605C99.7793 134.215 100.377 134.02 101.208 134.02H105.675V100.511H101.208C100.377 100.511 99.7793 100.328 99.4131 99.9619C99.0713 99.5713 98.9004 98.9243 98.9004 98.021C98.9004 97.1177 99.0713 96.4829 99.4131 96.1167C99.7793 95.7261 100.377 95.5308 101.208 95.5308H119.738ZM111.168 115.16H118.603C125.194 115.16 128.49 112.73 128.49 107.872C128.49 105.528 127.66 103.722 126 102.452C124.34 101.158 121.996 100.511 118.969 100.511H111.168V115.16Z" fill="#393939"/>
<path d="M128.118 41.2219C140.148 48.0558 149.594 58.6598 154.997 71.3966C160.4 84.1334 161.46 98.2947 158.014 111.694C154.567 125.093 146.806 136.985 135.927 145.534C125.049 154.083 111.659 158.813 97.8249 158.995C83.9906 159.176 70.4814 154.798 59.383 146.537C48.2846 138.276 40.2142 126.591 36.418 113.286C32.6217 99.9818 33.3107 85.7977 38.3785 72.9237C43.4462 60.0498 52.611 49.2021 64.4578 42.0555" stroke="#393939" stroke-width="4"/>
<path d="M169.5 96C169.5 136.041 137.041 168.5 97 168.5C56.9594 168.5 24.5 136.041 24.5 96C24.5 55.9594 56.9594 23.5 97 23.5C137.041 23.5 169.5 55.9594 169.5 96Z" stroke="#393939" stroke-width="5"/>
</svg>
