<svg width="28px" height="28px" viewBox="0 0 27 27" fill="none" xmlns="http://www.w3.org/2000/svg"><path d="M13.5 7.9245C6.42769 7.9245 0.62325 13.3402 0 20.25H27C26.3767 13.3402 20.5723 7.9245 13.5 7.9245ZM18.6632 15.2319C18.6632 14.6109 19.1666 14.1075 19.7876 14.1075C20.4086 14.1075 20.9121 14.6109 20.9121 15.2319C20.9121 15.8529 20.4086 16.3564 19.7876 16.3564C19.1666 16.3564 18.6632 15.8529 18.6632 15.2319ZM7.21237 16.3564C6.59137 16.3564 6.08794 15.8529 6.08794 15.2319C6.08794 14.6109 6.59137 14.1075 7.21237 14.1075C7.83337 14.1075 8.33681 14.6109 8.33681 15.2319C8.33681 15.8529 7.83337 16.3564 7.21237 16.3564Z" fill="#30DC80"/><path d="M19.1464 10.8636C19.0676 10.8636 18.9883 10.8439 18.9158 10.8017C18.6947 10.674 18.6193 10.3916 18.7464 10.1706L21.6698 5.10356C21.7974 4.88194 22.0798 4.806 22.3009 4.93425C22.5219 5.06194 22.5973 5.34431 22.4702 5.56537L19.5469 10.6324C19.4614 10.7809 19.3061 10.8636 19.1464 10.8636Z" fill="#30DC80"/><path d="M7.85362 10.8636C7.69387 10.8636 7.53862 10.7803 7.45312 10.6324L4.53037 5.56537C4.40269 5.34431 4.47862 5.06194 4.69912 4.93425C4.91962 4.806 5.20256 4.88194 5.33025 5.10356L8.25356 10.1706C8.38125 10.3922 8.30531 10.6746 8.08425 10.8017C8.01169 10.8439 7.93237 10.8636 7.85362 10.8636Z" fill="#30DC80"/></svg>