<svg width="20px" height="20px" viewBox="0 0 21 20" fill="none" xmlns="http://www.w3.org/2000/svg"><path d="M10.88 13.75C10.5068 13.75 10.2135 13.475 10.2135 13.125V1.875C10.2135 1.525 10.5068 1.25 10.88 1.25C11.2532 1.25 11.5465 1.525 11.5465 1.875V13.125C11.5465 13.475 11.2532 13.75 10.88 13.75ZM18.8776 18.75H2.88235C2.50913 18.75 2.21588 18.475 2.21588 18.125V15.625C2.21588 15.275 2.50913 15 2.88235 15C3.25557 15 3.54882 15.275 3.54882 15.625V17.5H18.2111V15.625C18.2111 15.275 18.5044 15 18.8776 15C19.2508 15 19.5441 15.275 19.5441 15.625V18.125C19.5441 18.475 19.2508 18.75 18.8776 18.75Z" fill="#fff"/><path d="M10.88 15C10.7926 15.001 10.706 14.9848 10.6256 14.9525C10.5453 14.9203 10.473 14.8725 10.4135 14.8125L5.74822 10.4375C5.48163 10.1875 5.48163 9.8 5.74822 9.55C6.01481 9.3 6.42802 9.3 6.69461 9.55L10.8934 13.4875L15.0921 9.55C15.3587 9.3 15.7719 9.3 16.0385 9.55C16.3051 9.8 16.3051 10.1875 16.0385 10.4375L11.3732 14.8125C11.2399 14.9375 11.0666 15 10.9067 15H10.88Z" fill="#fff"/></svg>