<svg width="12px" height="6px" viewBox="0 0 13 7" fill="none" xmlns="http://www.w3.org/2000/svg"><path d="M6.37541 6.0118L11.9814 1.05526C12.0749 0.972562 12.1287 0.86097 12.1316 0.743631C12.1345 0.626293 12.0862 0.512213 11.9967 0.425053L11.9907 0.419421C11.9473 0.377025 11.8947 0.342826 11.8361 0.318902C11.7774 0.294979 11.714 0.281833 11.6495 0.280264C11.5851 0.278694 11.5211 0.288735 11.4614 0.309774C11.4016 0.330812 11.3474 0.36241 11.3021 0.402644L6.02338 5.07014L0.980334 0.151165C0.936976 0.108768 0.884376 0.074569 0.825735 0.050646C0.767093 0.0267229 0.703636 0.0135767 0.639222 0.0120073C0.574809 0.010438 0.510786 0.0204782 0.451049 0.0415171C0.391312 0.062556 0.337109 0.0941531 0.291737 0.134388L0.28541 0.139718C0.191825 0.222418 0.138024 0.33401 0.135165 0.451349C0.132306 0.568688 0.180609 0.682768 0.270055 0.769928L5.62797 5.99359C5.67509 6.03953 5.7322 6.07658 5.79585 6.1025C5.8595 6.12841 5.92835 6.14265 5.99824 6.14436C6.06813 6.14606 6.1376 6.13519 6.20243 6.1124C6.26726 6.08962 6.32611 6.05539 6.37541 6.0118Z" fill="#fff"/></svg>