<svg width="256px" height="256px" viewBox="0 0 49 54" fill="none" xmlns="http://www.w3.org/2000/svg"><path d="M12.9 12H23V2H12.9L9.8 7L12.9 12Z" fill="#0068C8"/><path d="M2.7 7L5.8 2H3.5L0.300003 7L3.5 12H5.8L2.7 7Z" fill="#0068C8"/><path d="M7.40001 7L10.6 2H8.20001L5.10001 7L8.20001 12H10.6L7.40001 7Z" fill="#0068C8"/><path d="M40.1504 12.003L3.05362 24.0345L11.0746 48.7657L48.1714 36.7342L40.1504 12.003Z" fill="#FFECB3"/><path d="M41.3813 17.3502L2.96245 24.0543L7.43185 49.6669L45.8507 42.9628L41.3813 17.3502Z" fill="#FFC107"/><path d="M23 0H22V54H23V0Z" fill="#263238"/><path d="M42 52H3C2.6 51.6 2.4 51.4 2 51V25C2.4 24.6 2.6 24.4 3 24H42C42.8 24.8 43.2 25.2 44 26V50C43.2 50.8 42.8 51.2 42 52Z" fill="#0068C8"/><path d="M45 43H34C33.2 42.2 32.8 41.8 32 41V35C32.8 34.2 33.2 33.8 34 33H45C45.4 33.4 45.6 33.6 46 34V42C45.6 42.4 45.4 42.6 45 43Z" fill="#2F434E"/><path d="M39 41C40.6569 41 42 39.6569 42 38C42 36.3431 40.6569 35 39 35C37.3431 35 36 36.3431 36 38C36 39.6569 37.3431 41 39 41Z" fill="#0068C8"/><path d="M16 37C16 36.7 16 36.3 16.1 36H16C13.2 36 11 38.2 11 41C11 43.8 13.2 46 16 46C17.9 46 19.5 45 20.3 43.5C17.8 42.4 16 39.9 16 37Z" fill="#FFC107"/><path d="M23 30C19.5 30 16.6 32.6 16.1 36C18.8 36 21 38.3 21 41C21 41.9 20.7 42.7 20.3 43.5C21.1 43.8 22 44 23 44C26.9 44 30 40.9 30 37C30 33.1 26.9 30 23 30Z" fill="#FFC107"/><path d="M33.1 7H23V17H33.1L36.2 12L33.1 7Z" fill="#F2994A"/><path d="M43.3 12L40.2 17H42.5L45.7 12L42.5 7H40.2L43.3 12Z" fill="#F2994A"/><path d="M38.6 12L35.4 17H37.8L40.9 12L37.8 7H35.4L38.6 12Z" fill="#F2994A"/></svg>