<svg width = "256px" height = "256px" viewBox = "0 0 80 81" fill = "none" xmlns="http://www.w3.org/2000/svg">
    <path d = "M70 66.125H13.1875C11.4375 66.125 10 64.5 10 62.75V35.75C10
    34 11.4375 32.375 13.1875 32.375H70" fill = "#C1C1C0"/>
    <path d = "M70 66.125H13.1875C11.4375 66.125 10 64.5 10 62.75V35.75C10 34
    11.4375 32.375 13.1875 32.375H70" stroke = "#3D3D3D" stroke-width = '2'
    stroke-miterlimit = "10"/>
    <path d = "M75 62.9375C75 64.6875 73.5625 66.125 71.8125 66.125H15.6875C13.9375
    66.125 12.5 64.6875 12.5 62.9375V35.5625C12.5 33.8125 13.9375 32.375 15.6875
    32.375H71.8125C73.5625 32.375 75 33.8125 75 35.5625V62.9375Z" fill = "#E2E2E2"/>
    <path d = "M75 62.9375C75 64.6875 73.5625 66.125 71.8125 66.125H15.6875C13.9375
    66.125 12.5 64.6875 12.5 62.9375V35.5625C12.5 33.8125 13.9375 32.375 15.6875
    32.375H71.8125C73.5625 32.375 75 33.8125 75 35.5625V62.9375Z" stroke = "#3D3D3D"
    stroke-width = '2' stroke-miterlimit = "10"/>
    <path d = "M16.25 38H71.25" stroke = "#3D3D3D" stroke-width = '2'
    stroke-miterlimit = "10"/>
    <path d = "M42.5 14.875H20V38H42.5V14.875Z" fill = "#53AF80"/>
    <path d = "M42.5 14.875H20V38H42.5V14.875Z" stroke = "#3D3D3D" stroke-width = '2'
    stroke-miterlimit = "10"/>
    <path d = "M44.375 14.875H23.125V38H44.375V14.875Z" fill = "#53AF80"/>
    <path d = "M44.375 14.875H23.125V38H44.375V14.875Z" stroke = "#3D3D3D"
    stroke-width = '2' stroke-miterlimit = "10"/>
    <path d = "M48.125 14.875H26.25V38H48.125V14.875Z" fill = "#53AF80"/>
    <path d = "M44.375 18H28.75V38H44.375V18Z" fill = "#8DCEA8"/>
    <path d = "M42.5625 38.1875C43.0625 37.3125 43.3125 36.3125 43.3125 35.25C43.3125
    31.8125 40.5 29 37.0625 29C33.625 29 30.8125 31.8125 30.8125 35.25C30.8125 36.375
    31.125 37.4375 31.625 38.3125" fill = "#53AF80"/>
    <path d = "M48.125 14.875H26.25V38H48.125V14.875Z" stroke = "#3D3D3D"
    stroke-width = '2' stroke-miterlimit = "10"/>
    <path d = "M44.75 23.3125C41.8125 23.3125 39.4375 21.125 39.4375 18H45L44.75
    23.3125Z" fill = "#53AF80"/>
    <path d = "M34.4375 18C34.4375 21.125 31.875 23.625 28.75 23.625V18H34.4375Z"
    fill = "#53AF80"/>
    <path d = "M44.375 18H28.75V38H44.375V18Z" stroke = "#3D3D3D" stroke-width = '2'
    stroke-miterlimit = "10"/>
    <path d = "M34.4375 18.25C34.4375 21.1875 32.0625 23.5625 29.125 23.5625"
    stroke = "#3D3D3D" stroke-width = '2' stroke-miterlimit = "10"/>
    <path d = "M39.4375 18.25C39.4375 21.1875 41.8125 23.5625 44.75 23.5625"
    stroke = "#3D3D3D" stroke-width = '2' stroke-miterlimit = "10"/>
    <path d = "M59.4375 46.875C59.4375 44.5625 61.3125 42.6875 63.625 42.6875C65.9375
    42.6875 67.8125 44.5625 67.8125 46.875" fill = "#8DCEA8"/>
    <path d = "M59.4375 46.875C59.4375 44.5625 61.3125 42.6875 63.625 42.6875C65.9375
    42.6875 67.8125 44.5625 67.8125 46.875" stroke = "#3D3D3D" stroke-width = '2'
    stroke-miterlimit = "10"/>
    <path d = "M53.1875 46.875C53.1875 44.125 55.4375 41.875 58.1875 41.875C60.9375
    41.875 63.1875 44.125 63.1875 46.875" fill = "#8DCEA8"/>
    <path d = "M53.1875 46.875C53.1875 44.125 55.4375 41.875 58.1875 41.875C60.9375
    41.875 63.1875 44.125 63.1875 46.875" stroke = "#3D3D3D" stroke-width = '2'
    stroke-miterlimit = "10"/>
    <path d="M42.5625 38.1875C43.0625 37.3125 43.3125 36.3125 43.3125 35.25C43.3125
    31.8125 40.5 29 37.0625 29C33.625 29 30.8125 31.8125 30.8125 35.25C30.8125 36.375
    31.125 37.4375 31.625 38.3125" stroke = "#3D3D3D" stroke-width = '2'
    stroke-miterlimit = "10"/>
    <path d = "M15.625 47.375H36.625C38.375 47.375 39.375 47.875 39.375 49.625V63"
    stroke = "#3D3D3D" stroke-width = '2' stroke-miterlimit = "10"/>
    <path d="M15.625 54.875H36.625C38.375 54.875 39.375 55.8125 39.375 57.5625V63"
    stroke = "#3D3D3D" stroke-width = '2' stroke-miterlimit = "10"/>
    <path d="M71.25 47.375H50.125C48.375 47.375 47.5 47.875 47.5 49.625V63"
    stroke = "#3D3D3D" stroke-width = '2' stroke-miterlimit = "10"/>
    <path d = "M43.125 39.875V64.25" stroke = "#3D3D3D" stroke-width = '2'
    stroke-miterlimit = "10" stroke-linecap = "square" stroke-linejoin = "round"
    stroke-dasharray = "3 4"/>
    <path d = "M6.25 52.3125C4.6875 52.3125 3.375 51.375 3.375 49.8125C3.375 48.25
    4.5 47.3125 6.0625 47.3125H11.25V52.375L6.25 52.3125Z" fill = "#E2E2E2"/>
    <path d = "M6.25 52.3125C4.6875 52.3125 3.375 51.375 3.375 49.8125C3.375 48.25
    4.5 47.3125 6.0625 47.3125H11.25V52.375L6.25 52.3125Z" stroke = "#3D3D3D"
    stroke-width = '2' stroke-miterlimit = "10"/>
    <path d = "M6.0625 50.8125C6.71834 50.8125 7.25 50.2808 7.25 49.625C7.25
    48.9692 6.71834 48.4375 6.0625 48.4375C5.40666 48.4375 4.875 48.9692 4.875
    49.625C4.875 50.2808 5.40666 50.8125 6.0625 50.8125Z" fill = "#3D3D3D"/>
    <path d = "M67.5 25.5H50.625V38H67.5V25.5Z" fill = "white"/>
    <path d = "M67.5 25.5H50.625V38H67.5V25.5Z" stroke = "#3D3D3D" stroke-width = '2'
    stroke-miterlimit = "10"/>
    <path d = "M54.375 31.125H63.75" stroke = "#3D3D3D" stroke-width = '2'
    stroke-miterlimit = "10"/>
    <path d = "M54.375 33.625H63.75" stroke = "#3D3D3D" stroke-width = '2'
    stroke-miterlimit = "10"/>
    <path d = "M54.375 36.125H63.75" stroke = "#3D3D3D" stroke-width = '2'
    stroke-miterlimit = '10'/>
    <path d = "M33.25 41.125H22.5C21.75 41.125 21.25 41.75 21.25
    42.5V47.375H34.375V42.5C34.375 41.75 34 41.125 33.25 41.125Z" fill = "#53AF80"/>
    <path d = "M33.125 41.125H22.5C21.8125 41.125 21.25 41.6875 21.25
    42.375V47.375H34.375V42.375C34.375 41.6875 33.8125 41.125 33.125 41.125Z"
    stroke = "#3D3D3D" stroke-width = '2' stroke-miterlimit = "10"/>
    <path d = "M27.5 41.125H23.75V48H27.5V41.125Z" fill = "#3D3D3D"/>
</svg>
