<svg width="256px" height="256px" viewBox="0 0 75 46" fill="none" xmlns="http://www.w3.org/2000/svg">
    <path d="M60.2853 23.9562H24.9268C24.0979 23.9562 23.4106 23.4149 23.4106 22.7622V9.50049C23.4106 8.84775 24.0979 8.30646 24.9268 8.30646H60.2651C61.094 8.30646 61.7813 8.84775 61.7813 9.50049V22.7781C61.8015 23.4149 61.1142 23.9562 60.2853 23.9562Z" fill="#53AF80"/>
    <path d="M55.8782 10.4398C55.8782 10.408 55.8782 10.3761 55.8782 10.3443H29.2936C29.2936 10.3761 29.3138 10.408 29.3138 10.4398C29.3138 11.602 28.1008 12.5572 26.625 12.5572V19.7851C28.1008 19.7851 29.3138 20.7403 29.3138 21.9025H55.8984C55.8984 20.7403 57.1114 19.7851 58.5872 19.7851V12.5572C57.0912 12.5572 55.8782 11.6179 55.8782 10.4398ZM32.7506 17.2856C31.9419 17.2856 31.2748 16.7602 31.2748 16.1234C31.2748 15.4866 31.9419 14.9612 32.7506 14.9612C33.5592 14.9612 34.2264 15.4866 34.2264 16.1234C34.2062 16.7602 33.5592 17.2856 32.7506 17.2856ZM42.5758 20.5175C39.7253 20.5175 37.4206 18.6548 37.4206 16.3781C37.4206 14.1015 39.7253 12.2388 42.5758 12.2388C45.4263 12.2388 47.731 14.1015 47.731 16.3781C47.731 18.6548 45.4263 20.5175 42.5758 20.5175ZM52.4212 17.2856C51.6125 17.2856 50.9454 16.7602 50.9454 16.1234C50.9454 15.4866 51.6125 14.9612 52.4212 14.9612C53.2298 14.9612 53.897 15.4866 53.897 16.1234C53.8767 16.7602 53.2298 17.2856 52.4212 17.2856Z" fill="#8DCEA8"/>
    <path d="M44.7389 16.6965C44.5974 16.5373 44.4154 16.3941 44.1526 16.2667C43.8898 16.1393 43.5664 16.0438 43.1418 15.9642C42.7981 15.9005 42.5151 15.8368 42.3332 15.7891C42.131 15.7413 41.9693 15.6776 41.8682 15.598C41.7671 15.5184 41.6862 15.4229 41.6862 15.2955C41.6862 15.1682 41.7671 15.0567 41.9288 14.9612C42.0906 14.8657 42.2927 14.8339 42.5151 14.8339C42.7375 14.8339 42.9396 14.8657 43.0812 14.9294C43.2227 14.9931 43.344 15.0886 43.4451 15.2C43.5664 15.3274 43.6674 15.4388 43.7685 15.5025C43.8696 15.5662 43.9909 15.598 44.1122 15.598C44.2941 15.598 44.4357 15.5503 44.5367 15.4707C44.6378 15.3751 44.6985 15.2796 44.6985 15.1523C44.6985 15.0249 44.6378 14.9135 44.557 14.7861C44.4559 14.6587 44.3144 14.5473 44.1324 14.4518C43.9505 14.3562 43.7281 14.2607 43.4451 14.197C43.4248 14.197 43.4046 14.1811 43.3844 14.1811V13.799C43.3844 13.4965 43.0609 13.2259 42.6768 13.2259C42.2927 13.2259 41.9693 13.4806 41.9693 13.799V14.1493C41.7671 14.1811 41.5851 14.2289 41.4032 14.2926C41.1 14.4199 40.8574 14.5791 40.6956 14.7861C40.5339 14.9931 40.453 15.2 40.453 15.4388C40.453 15.6936 40.5339 15.9005 40.7158 16.0916C40.8776 16.2667 41.1 16.41 41.4032 16.5214C41.6862 16.6329 42.0703 16.7284 42.5151 16.8239C42.9194 16.9035 43.2227 16.999 43.3844 17.0786C43.5664 17.1742 43.6472 17.3174 43.6472 17.5244C43.6472 17.6518 43.5664 17.7791 43.3844 17.8747C43.2227 17.9702 43.0003 18.0179 42.7375 18.0179C42.414 18.0179 42.1512 17.9702 41.9693 17.8747C41.7873 17.7791 41.6054 17.6199 41.4841 17.413C41.4234 17.3015 41.3425 17.2219 41.2617 17.1582C41.1808 17.0946 41.0797 17.0627 40.9382 17.0627C40.7765 17.0627 40.6552 17.1105 40.5541 17.1901C40.453 17.2856 40.3924 17.397 40.3924 17.5085C40.3924 17.6995 40.4732 17.8906 40.635 18.0816C40.7967 18.2727 41.0595 18.4319 41.383 18.5433C41.5447 18.607 41.7469 18.6548 41.949 18.6866V19.0528C41.949 19.3553 42.2725 19.6259 42.6566 19.6259C43.0407 19.6259 43.3642 19.3712 43.3642 19.0528V18.6866C43.5461 18.6548 43.7281 18.6229 43.8494 18.5592C44.1931 18.4319 44.4559 18.2727 44.6378 18.0498C44.8198 17.8269 44.9006 17.5562 44.9006 17.2378C44.9411 17.0468 44.8602 16.8717 44.7389 16.6965Z" fill="#8DCEA8"/>
    <path d="M9.46126 0.983093H16.072C16.6381 0.983093 17.1233 1.34926 17.1233 1.81095V14.1174C17.1233 14.5632 16.6583 14.9453 16.072 14.9453H9.46126C8.8952 14.9453 8.41 14.5791 8.41 14.1174V1.81095C8.41 1.34926 8.87498 0.983093 9.46126 0.983093Z" fill="#F4F4F4"/>
    <path d="M-9.53674e-06 15.8687H8.28872C8.99629 15.8687 9.58257 15.407 9.58257 14.8498V1.06267C9.58257 0.505455 8.99629 0.0437622 8.28872 0.0437622H-9.53674e-06V15.8687Z" fill="#1A5630" fill-opacity="0.7"/>
    <path d="M31.1737 10.2647V10.3443L31.1939 10.7423C31.2343 11.6975 32.2654 12.4458 33.4784 12.4139L41.6458 12.3184H42.0501C43.3238 12.2866 44.375 12.9393 44.3346 13.9104L44.3144 14.5313C44.3144 14.5473 44.3144 14.5632 44.3144 14.5791C44.2941 14.9453 44.1122 15.2955 43.8292 15.5662C43.6472 15.7413 43.4248 15.8846 43.162 15.996C42.8386 16.1393 42.4949 16.203 42.0906 16.203H34.5498C34.4285 16.203 34.3072 16.2189 34.2062 16.2189C33.8018 16.2667 33.4177 16.4099 33.1145 16.6169L31.8813 17.0945L31.7398 17.1582C30.1022 17.795 28.3636 18.1134 26.6048 18.1134C25.5131 18.1134 24.4416 18.002 23.3904 17.7632C21.49 17.3333 19.711 16.5373 18.2756 15.391L16.3551 13.8786C15.9305 13.5443 15.6879 13.0826 15.6879 12.605V3.02087C15.6879 2.24077 16.4764 1.61987 17.467 1.61987H41.6862C42.1512 1.61987 42.6162 1.74724 42.9801 1.9542L54.1193 8.33829H44.3346C44.092 8.27461 43.8292 8.24277 43.5866 8.24277L40.3519 8.33829L33.2964 8.4975C32.1036 8.52934 31.1535 9.30944 31.1737 10.2647Z" fill="#F5CE00"/>
    <path d="M12.5544 13.6557C13.4923 13.6557 14.2526 13.057 14.2526 12.3184C14.2526 11.5798 13.4923 10.9811 12.5544 10.9811C11.6165 10.9811 10.8562 11.5798 10.8562 12.3184C10.8562 13.057 11.6165 13.6557 12.5544 13.6557Z" fill="#53AF80"/>
    <path d="M59.5171 42.6786C59.5171 43.4587 58.7287 44.0796 57.7381 44.0796H33.5188C33.0538 44.0796 32.5889 43.9523 32.225 43.7453L16.1327 34.5115C15.041 33.8746 14.9399 32.6488 15.9103 31.9005L16.0721 31.7731C16.7999 31.2319 17.9118 31.1363 18.7608 31.5503L30.3651 37.1702C30.729 37.3453 31.1737 37.4408 31.6185 37.4408L41.9086 37.1543C43.1014 37.1224 44.0516 36.3423 44.0516 35.3871L44.0314 34.9095C43.9909 33.9542 42.9599 33.206 41.7469 33.2378L33.1751 33.3493C31.9015 33.3811 30.8503 32.7284 30.8907 31.7572L30.9109 31.1363C30.9513 30.197 31.9217 29.4647 33.1145 29.4647H40.6552C41.1808 29.4647 41.7065 29.3214 42.0906 29.0508L43.4855 28.5254C47.9736 26.7582 53.432 27.5065 56.9497 30.2925L58.8702 31.805C59.2948 32.1393 59.5373 32.601 59.5373 33.0786V42.6786H59.5171Z" fill="#F5CE00"/>
    <path d="M65.7437 44.6687H59.133C58.5669 44.6687 58.0817 44.3025 58.0817 43.8408V31.5343C58.0817 31.0886 58.5467 30.7065 59.133 30.7065H65.7437C66.3098 30.7065 66.795 31.0727 66.795 31.5343V43.8408C66.795 44.3025 66.3502 44.6687 65.7437 44.6687Z" fill="#F4F4F4"/>
    <path d="M74.6794 29.7831H66.3907C65.6831 29.7831 65.0968 30.2448 65.0968 30.802V44.5891C65.0968 45.1463 65.6831 45.608 66.3907 45.608H74.6794V29.7831Z" fill="#1A5630" fill-opacity="0.7"/>
    <path d="M61.6802 34.9572C62.6181 34.9572 63.3784 34.3585 63.3784 33.6199C63.3784 32.8813 62.6181 32.2826 61.6802 32.2826C60.7424 32.2826 59.9821 32.8813 59.9821 33.6199C59.9821 34.3585 60.7424 34.9572 61.6802 34.9572Z" fill="#53AF80"/>
</svg>
