<svg width = "256px" height = "256px" viewBox = "0 0 80 64" fill = "none">
    <path d = "M63.2853 27.9562H27.9268C27.0979 27.9562 26.4106 27.4149 26.4106
    26.7622V13.5005C26.4106 12.8478 27.0979 12.3065 27.9268 12.3065H63.2651C64.094
    12.3065 64.7813 12.8478 64.7813 13.5005V26.7781C64.8015 27.4149 64.1142 27.9562
    63.2853 27.9562Z" fill = "#00B25A"/>
    <path d = "M58.8782 14.4398C58.8782 14.4079 58.8782 14.3761 58.8782
    14.3443H32.2936C32.2936 14.3761 32.3138 14.4079 32.3138 14.4398C32.3138 15.602
    31.1008 16.5572 29.625 16.5572V23.7851C31.1008 23.7851 32.3138 24.7403 32.3138
    25.9025H58.8984C58.8984 24.7403 60.1114 23.7851 61.5872 23.7851V16.5572C60.0911
    16.5572 58.8782 15.6179 58.8782 14.4398ZM35.7506 21.2856C34.9419 21.2856 34.2748
    20.7602 34.2748 20.1234C34.2748 19.4866 34.9419 18.9612 35.7506 18.9612C36.5592
    18.9612 37.2264 19.4866 37.2264 20.1234C37.2062 20.7602 36.5592 21.2856 35.7506
    21.2856ZM45.5758 24.5174C42.7252 24.5174 40.4206 22.6547 40.4206 20.3781C40.4206
    18.1015 42.7252 16.2388 45.5758 16.2388C48.4263 16.2388 50.7309 18.1015 50.7309
    20.3781C50.7309 22.6547 48.4263 24.5174 45.5758 24.5174ZM55.4212 21.2856C54.6125
    21.2856 53.9454 20.7602 53.9454 20.1234C53.9454 19.4866 54.6125 18.9612 55.4212
    18.9612C56.2298 18.9612 56.897 19.4866 56.897 20.1234C56.8767 20.7602 56.2298
    21.2856 55.4212 21.2856Z" fill = "#64DD5E"/>
    <path d = "M47.7389 20.6965C47.5974 20.5373 47.4154 20.394 47.1526 20.2667C46.8898
    20.1393 46.5664 20.0438 46.1418 19.9642C45.7981 19.9005 45.5151 19.8368 45.3332
    19.7891C45.131 19.7413 44.9693 19.6776 44.8682 19.598C44.7671 19.5184 44.6862
    19.4229 44.6862 19.2955C44.6862 19.1682 44.7671 19.0567 44.9288 18.9612C45.0906
    18.8657 45.2927 18.8338 45.5151 18.8338C45.7375 18.8338 45.9396 18.8657 46.0812
    18.9293C46.2227 18.993 46.344 19.0886 46.4451 19.2C46.5664 19.3274 46.6674 19.4388
    46.7685 19.5025C46.8696 19.5662 46.9909 19.598 47.1122 19.598C47.2941 19.598 47.4357
    19.5502 47.5367 19.4706C47.6378 19.3751 47.6985 19.2796 47.6985 19.1522C47.6985
    19.0249 47.6378 18.9134 47.557 18.7861C47.4559 18.6587 47.3144 18.5473 47.1324
    18.4517C46.9505 18.3562 46.7281 18.2607 46.4451 18.197C46.4248 18.197 46.4046
    18.1811 46.3844 18.1811V17.799C46.3844 17.4965 46.0609 17.2259 45.6768 17.2259C45.2927
    17.2259 44.9693 17.4806 44.9693 17.799V18.1492C44.7671 18.1811 44.5851 18.2288
    44.4032 18.2925C44.1 18.4199 43.8574 18.5791 43.6956 18.7861C43.5339 18.993 43.453
    19.2 43.453 19.4388C43.453 19.6935 43.5339 19.9005 43.7158 20.0915C43.8776 20.2667
    44.1 20.4099 44.4032 20.5214C44.6862 20.6328 45.0703 20.7284 45.5151 20.8239C45.9194
    20.9035 46.2227 20.999 46.3844 21.0786C46.5664 21.1741 46.6472 21.3174 46.6472
    21.5244C46.6472 21.6517 46.5664 21.7791 46.3844 21.8746C46.2227 21.9701 46.0003
    22.0179 45.7375 22.0179C45.414 22.0179 45.1512 21.9701 44.9693 21.8746C44.7873
    21.7791 44.6054 21.6199 44.4841 21.4129C44.4234 21.3015 44.3425 21.2219 44.2617
    21.1582C44.1808 21.0945 44.0797 21.0627 43.9382 21.0627C43.7765 21.0627 43.6552
    21.1104 43.5541 21.19C43.453 21.2856 43.3924 21.397 43.3924 21.5085C43.3924
    21.6995 43.4732 21.8905 43.635 22.0816C43.7967 22.2726 44.0595 22.4318 44.383
    22.5433C44.5447 22.607 44.7469 22.6547 44.949 22.6866V23.0527C44.949 23.3552
    45.2725 23.6259 45.6566 23.6259C46.0407 23.6259 46.3642 23.3711 46.3642
    23.0527V22.6866C46.5461 22.6547 46.7281 22.6229 46.8494 22.5592C47.1931 22.4318
    47.4559 22.2726 47.6378 22.0498C47.8198 21.8269 47.9006 21.5562 47.9006
    21.2378C47.9411 21.0468 47.8602 20.8716 47.7389 20.6965Z" fill = "#64DD5E"/>
    <path d = "M12.4613 4.98306H19.072C19.6381 4.98306 20.1233 5.34923 20.1233
    5.81092V18.1174C20.1233 18.5632 19.6583 18.9453 19.072 18.9453H12.4613C11.8952
    18.9453 11.41 18.5791 11.41 18.1174V5.81092C11.41 5.34923 11.875 4.98306
    12.4613 4.98306Z" fill = "#F4F4F4"/>
    <path d = "M2.99998 19.8687H11.2887C11.9963 19.8687 12.5826 19.407 12.5826
    18.8498V5.06267C12.5826 4.50545 11.9963 4.04376 11.2887
    4.04376H2.99998V19.8687Z" fill = "#4398FF"/>
    <path d = "M34.1737 14.2647V14.3443L34.1939 14.7423C34.2343 15.6975 35.2654
    16.4458 36.4784 16.4139L44.6458 16.3184H45.0501C46.3237 16.2866 47.375 16.9393
    47.3346 17.9104L47.3144 18.5313C47.3144 18.5473 47.3144 18.5632 47.3144
    18.5791C47.2941 18.9453 47.1122 19.2955 46.8292 19.5662C46.6472 19.7413
    46.4248 19.8846 46.162 19.996C45.8386 20.1393 45.4949 20.203 45.0905
    20.203H37.5498C37.4285 20.203 37.3072 20.2189 37.2061 20.2189C36.8018
    20.2667 36.4177 20.4099 36.1145 20.6169L34.8813 21.0945L34.7397 21.1582C33.1022
    21.795 31.3636 22.1134 29.6048 22.1134C28.5131 22.1134 27.4416 22.002 26.3904
    21.7632C24.49 21.3333 22.711 20.5373 21.2756 19.391L19.3551 17.8786C18.9305
    17.5443 18.6879 17.0826 18.6879 16.605V7.02087C18.6879 6.24077 19.4764 5.61987
    20.467 5.61987H44.6862C45.1512 5.61987 45.6162 5.74724 45.9801 5.9542L57.1193
    12.3383H47.3346C47.092 12.2746 46.8292 12.2428 46.5866 12.2428L43.3519
    12.3383L36.2964 12.4975C35.1036 12.5293 34.1535 13.3094 34.1737 14.2647Z"
    fill = "#FFD7B3"/>
    <path d = "M15.5544 17.6557C16.4922 17.6557 17.2525 17.057 17.2525 16.3184C17.2525
    15.5798 16.4922 14.9811 15.5544 14.9811C14.6165 14.9811 13.8562 15.5798 13.8562
    16.3184C13.8562 17.057 14.6165 17.6557 15.5544 17.6557Z" fill = "#4398FF"/>
    <path d = "M62.5171 46.6786C62.5171 47.4587 61.7287 48.0796 60.7381
    48.0796H36.5188C36.0538 48.0796 35.5889 47.9523 35.225 47.7453L19.1327
    38.5115C18.041 37.8746 17.9399 36.6488 18.9103 35.9005L19.0721 35.7731C19.7998
    35.2319 20.9117 35.1363 21.7608 35.5503L33.3651 41.1702C33.729 41.3453 34.1737
    41.4408 34.6185 41.4408L44.9086 41.1543C46.1014 41.1224 47.0516 40.3423 47.0516
    39.3871L47.0314 38.9095C46.9909 37.9542 45.9599 37.206 44.7469 37.2378L36.1751
    37.3493C34.9015 37.3811 33.8503 36.7284 33.8907 35.7572L33.9109 35.1363C33.9513
    34.197 34.9217 33.4647 36.1145 33.4647H43.6552C44.1808 33.4647 44.7065 33.3214
    45.0906 33.0508L46.4855 32.5254C50.9736 30.7582 56.432 31.5065 59.9496
    34.2925L61.8702 35.805C62.2948 36.1393 62.5373 36.601 62.5373
    37.0786V46.6786H62.5171Z" fill = "#FFD7B3"/>
    <path d = "M68.7437 48.6687H62.133C61.5669 48.6687 61.0817 48.3025 61.0817
    47.8408V35.5343C61.0817 35.0886 61.5467 34.7065 62.133 34.7065H68.7437C69.3098
    34.7065 69.795 35.0727 69.795 35.5343V47.8408C69.795 48.3025 69.3502 48.6687
    68.7437 48.6687Z" fill = "#F4F4F4"/>
    <path d = "M77.6794 33.7831H69.3907C68.6831 33.7831 68.0968 34.2448 68.0968
    34.802V48.5891C68.0968 49.1463 68.6831 49.608 69.3907 49.608H77.6794V33.7831Z"
    fill = "#FFC967"/>
    <path d = "M64.6802 38.9572C65.6181 38.9572 66.3784 38.3585 66.3784
    37.6199C66.3784 36.8813 65.6181 36.2826 64.6802 36.2826C63.7424 36.2826
    62.9821 36.8813 62.9821 37.6199C62.9821 38.3585 63.7424 38.9572 64.6802
    38.9572Z" fill = "#FFC967"/>
</svg>
