<svg width="32px" height="32px" viewBox="0 0 32 33" fill="none" xmlns="http://www.w3.org/2000/svg"><path fill-rule="evenodd" clip-rule="evenodd" d="M5.20599 3.57202C4.90599 3.89402 4.73399 4.39002 4.73399 5.03469V27.9574C4.73399 28.602 4.90599 29.098 5.21733 29.4087L5.29866 29.4774L18.1427 16.6334V16.3447L5.28733 3.50336L5.20599 3.57202Z" fill="url(#paint0_linear_18_1177)"/><path fill-rule="evenodd" clip-rule="evenodd" d="M22.4153 20.9313L18.1313 16.646V16.346L22.4167 12.0607L22.5093 12.118L27.578 14.9987C29.0293 15.8167 29.0293 17.1647 27.578 17.994L22.5093 20.8747C22.508 20.874 22.4153 20.9313 22.4153 20.9313Z" fill="url(#paint1_linear_18_1177)"/><path fill-rule="evenodd" clip-rule="evenodd" d="M22.508 20.874L18.1313 16.496L5.20599 29.4213C5.67799 29.9286 6.47266 29.986 7.36066 29.49L22.508 20.874Z" fill="url(#paint2_linear_18_1177)"/><path fill-rule="evenodd" clip-rule="evenodd" d="M22.508 12.1193L7.36066 3.51465C6.47399 3.00732 5.67799 3.07599 5.20599 3.58332L18.13 16.496L22.508 12.1193Z" fill="url(#paint3_linear_18_1177)"/><defs><linearGradient id="paint0_linear_18_1177" x1="25.7946" y1="-4.02908" x2="-1.92315" y2="3.36158" gradientUnits="userSpaceOnUse"><stop stop-color="#047ED6"/><stop offset="1" stop-color="#50E6FF"/></linearGradient><linearGradient id="paint1_linear_18_1177" x1="29.4683" y1="16.495" x2="15.0985" y2="16.495" gradientUnits="userSpaceOnUse"><stop stop-color="#FFDA1C"/><stop offset="1" stop-color="#FEB705"/></linearGradient><linearGradient id="paint2_linear_18_1177" x1="20.1244" y1="18.875" x2="3.61019" y2="46.6742" gradientUnits="userSpaceOnUse"><stop stop-color="#D9414F"/><stop offset="1" stop-color="#8C193F"/></linearGradient><linearGradient id="paint3_linear_18_1177" x1="1.95017" y1="-4.05561" x2="9.31722" y2="8.36118" gradientUnits="userSpaceOnUse"><stop stop-color="#33C481"/><stop offset="1" stop-color="#61E3A7"/></linearGradient></defs></svg>