<svg width="12px" height="6px" viewBox="0 0 12 6" fill="none" xmlns="http://www.w3.org/2000/svg"><path d="M5.62617 0.141703L0.142609 5.23331C0.051067 5.31827 0 5.43114 0 5.54851C0 5.66588 0.051067 5.77875 0.142609 5.86371L0.148805 5.86919C0.193183 5.91052 0.2466 5.94343 0.305807 5.96592C0.365014 5.9884 0.428773 6 0.493206 6C0.557638 6 0.621397 5.9884 0.680604 5.96592C0.739811 5.94343 0.793228 5.91052 0.837606 5.86919L6.00103 1.07451L11.1624 5.86919C11.2068 5.91052 11.2602 5.94343 11.3194 5.96592C11.3786 5.9884 11.4424 6 11.5068 6C11.5712 6 11.635 5.9884 11.6942 5.96592C11.7534 5.94343 11.8068 5.91052 11.8512 5.86919L11.8574 5.86371C11.9489 5.77875 12 5.66588 12 5.54851C12 5.43114 11.9489 5.31827 11.8574 5.23331L6.37383 0.141703C6.32561 0.0969243 6.26761 0.0612755 6.20335 0.0369177C6.13909 0.0125599 6.06991 0 6 0C5.93009 0 5.86091 0.0125599 5.79665 0.0369177C5.73239 0.0612755 5.67439 0.0969243 5.62617 0.141703Z" fill="#fff"/></svg>